<svg xmlns="http://www.w3.org/2000/svg" width="674.009" height="201.175" viewBox="0 0 674.009 201.175"><g fill="#939598"><path fill-rule="evenodd" clip-rule="evenodd" d="M292.854 63.046c.027-3.466-.765-6.063-2.376-7.79-1.61-1.727-4.197-2.59-7.76-2.59h-3.59v20.76h3.348c3.55-.045 6.172-1 7.863-2.863 1.69-1.863 2.527-4.368 2.514-7.517m6.985 0c-.055 3.966-.908 7.2-2.563 9.704-1.655 2.503-3.795 4.343-6.42 5.522-2.625 1.177-5.42 1.76-8.38 1.75h-10.138V46.07h10.62c3.263-.022 6.158.526 8.687 1.64 2.53 1.116 4.52 2.92 5.972 5.415 1.45 2.494 2.19 5.8 2.22 9.92"/><path fill-rule="evenodd" clip-rule="evenodd" d="M327.133 57.013c-.014-1.517-.446-2.62-1.297-3.304-.85-.688-2.034-1.025-3.552-1.014h-8.876v8.73h8.876c3.192.008 4.81-1.464 4.85-4.413m6.984 23.037h-7.81l-6.06-12.222h-6.84V80.05h-6.79V46.1h15.81c2.16 0 4.12.394 5.877 1.185 1.758.79 3.16 1.984 4.205 3.58 1.046 1.593 1.582 3.594 1.608 6.002-.008 5.028-2.175 8.358-6.5 9.99l6.5 13.193z"/><path d="M365.543 80.052h-24.3v-33.95h23.573v6.644h-16.78v5.87h9.747v6.594h-9.748v8.198h17.508zM396.97 69.77c.023 3.273-1.04 5.882-3.195 7.827-2.152 1.945-5.533 2.94-10.142 2.99-2.87-.02-5.46-.575-7.76-1.663-2.3-1.087-4.113-2.586-5.432-4.498l4.9-4.365c1.197 1.372 2.535 2.364 4.014 2.978 1.477.614 3.033.914 4.666.903 3.986.058 5.96-1.17 5.918-3.684.025-.718-.152-1.33-.54-1.842-.382-.51-1.122-.98-2.22-1.41-1.094-.43-2.697-.882-4.805-1.356-2.102-.46-3.947-1.055-5.535-1.787-1.59-.732-2.83-1.755-3.723-3.07-.895-1.313-1.35-3.073-1.365-5.28.025-2.06.578-3.832 1.656-5.314 1.078-1.482 2.53-2.62 4.352-3.42 1.822-.796 3.86-1.198 6.117-1.207 2.63.012 4.95.483 6.967 1.41 2.016.93 3.816 2.237 5.4 3.924l-4.898 4.752c-1.082-1.12-2.252-1.98-3.51-2.582-1.258-.6-2.658-.903-4.2-.91-1.794.034-3.058.356-3.79.964-.732.61-1.086 1.307-1.06 2.092-.054 1.025.413 1.813 1.4 2.364.983.552 2.796 1.122 5.437 1.71 1.837.39 3.614.936 5.337 1.638 1.72.702 3.145 1.744 4.268 3.126 1.122 1.38 1.704 3.284 1.745 5.712"/><path fill-rule="evenodd" clip-rule="evenodd" d="M424.61 63.046c.024-3.466-.767-6.063-2.378-7.79-1.61-1.727-4.197-2.59-7.76-2.59h-3.588v20.76h3.346c3.553-.045 6.172-1 7.863-2.863 1.69-1.863 2.53-4.368 2.516-7.517m6.983 0c-.053 3.966-.906 7.2-2.562 9.704-1.653 2.503-3.794 4.343-6.42 5.522-2.624 1.177-5.42 1.76-8.38 1.75h-10.137V46.07h10.62c3.263-.022 6.16.526 8.688 1.64 2.53 1.116 4.52 2.92 5.972 5.415 1.454 2.494 2.192 5.8 2.22 9.92"/><path d="M462.67 80.052h-24.297v-33.95h23.57v6.644h-16.78v5.87h9.75v6.594h-9.75v8.198h17.508zM497.396 80.052h-6.062L478.87 61.525c-.433-.657-.878-1.344-1.335-2.06-.457-.72-.803-1.31-1.04-1.772 0 .454.007 1.142.024 2.064.013.923.028 1.88.044 2.873.016.992.025 1.82.025 2.484v14.938h-6.692v-33.95h6.498l12.027 17.945c.434.657.88 1.344 1.334 2.06.457.72.805 1.31 1.043 1.77-.002-.452-.01-1.14-.025-2.062l-.047-2.873c-.016-.993-.023-1.82-.025-2.485V46.102h6.693v33.95zM272.825 96.673h6.79v33.95h-6.79zM316.323 130.623h-6.062l-12.464-18.527c-.432-.657-.877-1.344-1.334-2.06-.457-.718-.804-1.31-1.043-1.77 0 .452.01 1.14.025 2.063l.046 2.87c.017.993.025 1.82.027 2.485v14.937h-6.693v-33.95h6.5l12.026 17.945c.433.657.877 1.344 1.335 2.062.456.716.804 1.306 1.042 1.77 0-.454-.01-1.142-.025-2.064-.016-.923-.03-1.88-.046-2.873-.016-.992-.025-1.82-.026-2.485V96.673h6.693v33.95zM349.148 103.366H339.4v27.257h-6.79v-27.257h-9.748v-6.693h26.286zM379.99 130.623h-24.297v-33.95h23.568v6.644h-16.778v5.87h9.748v6.595h-9.748v8.197h17.508z"/><path fill-rule="evenodd" clip-rule="evenodd" d="M407.73 107.584c-.014-1.517-.445-2.618-1.297-3.304-.85-.686-2.033-1.024-3.55-1.013h-8.878v8.73h8.877c3.192.008 4.81-1.463 4.848-4.413m6.986 23.037h-7.81l-6.062-12.22h-6.838v12.22h-6.79V96.67h15.812c2.16 0 4.117.396 5.875 1.187 1.758.79 3.16 1.984 4.205 3.578 1.047 1.594 1.582 3.595 1.61 6.003-.01 5.028-2.177 8.358-6.5 9.99l6.498 13.193z"/><path d="M449.34 130.623h-6.06l-12.466-18.527c-.432-.657-.877-1.344-1.334-2.06-.457-.718-.803-1.31-1.04-1.77 0 .452.01 1.14.024 2.063l.045 2.87c.015.993.024 1.82.024 2.485v14.937h-6.693v-33.95h6.5l12.028 17.945c.434.657.88 1.344 1.334 2.062.457.716.805 1.306 1.043 1.77 0-.454-.01-1.142-.025-2.064l-.047-2.873c-.014-.992-.023-1.82-.025-2.485V96.673h6.693v33.95z"/><path fill-rule="evenodd" clip-rule="evenodd" d="M475.716 116.605l-2.182-6.16c-.348-1.01-.672-1.982-.977-2.914-.303-.932-.545-1.722-.72-2.37-.18.648-.42 1.438-.722 2.37-.305.934-.63 1.905-.977 2.916l-2.184 6.16h7.762zm12.465 14.018h-7.468l-2.666-7.566h-12.418l-2.668 7.566h-7.273l12.998-33.95h6.596l12.9 33.95z"/><path d="M513.94 103.366h-9.75v27.257h-6.788v-27.257h-9.748v-6.693h26.287zM520.968 96.673h6.79v33.95h-6.79z"/><path fill-rule="evenodd" clip-rule="evenodd" d="M557.726 113.647c.006-2.04-.26-3.87-.795-5.485-.534-1.617-1.372-2.895-2.517-3.837-1.145-.942-2.627-1.424-4.45-1.445-1.817.02-3.302.503-4.446 1.445-1.143.942-1.982 2.22-2.518 3.837-.536 1.615-.8 3.444-.794 5.485-.006 2.042.258 3.87.793 5.486.534 1.616 1.374 2.896 2.517 3.837 1.145.94 2.63 1.424 4.447 1.443 1.822-.02 3.305-.502 4.45-1.443 1.143-.94 1.98-2.22 2.517-3.837.536-1.614.802-3.444.796-5.486m6.982 0c-.01 3.47-.598 6.513-1.764 9.132-1.164 2.617-2.844 4.662-5.04 6.133-2.194 1.472-4.84 2.22-7.94 2.243-3.098-.024-5.742-.77-7.938-2.243-2.195-1.47-3.875-3.516-5.04-6.134-1.167-2.62-1.755-5.663-1.765-9.133.01-3.468.6-6.512 1.765-9.13 1.166-2.62 2.846-4.664 5.04-6.134 2.196-1.47 4.84-2.22 7.94-2.244 3.1.023 5.745.772 7.94 2.243 2.195 1.47 3.875 3.515 5.04 6.134 1.166 2.62 1.754 5.663 1.763 9.13"/><path d="M599.093 130.623h-6.062l-12.464-18.527c-.432-.657-.877-1.344-1.332-2.06-.46-.718-.805-1.31-1.043-1.77 0 .452.01 1.14.026 2.063l.047 2.87c.014.993.023 1.82.023 2.485v14.937h-6.692v-33.95h6.498l12.027 17.945c.433.657.878 1.344 1.335 2.062.455.716.803 1.306 1.04 1.77 0-.454-.01-1.142-.024-2.064-.015-.923-.03-1.88-.044-2.873-.018-.992-.025-1.82-.027-2.485V96.673h6.692v33.95z"/><path fill-rule="evenodd" clip-rule="evenodd" d="M625.47 116.605l-2.183-6.16c-.348-1.01-.672-1.982-.977-2.914-.303-.932-.543-1.722-.72-2.37-.18.648-.417 1.438-.724 2.37-.303.934-.63 1.905-.975 2.916l-2.183 6.16h7.763zm12.465 14.018h-7.47l-2.667-7.566H615.38l-2.666 7.566h-7.275l12.997-33.95h6.596l12.902 33.95z"/><path d="M668.01 130.623h-23.815v-33.95h6.79v27.257h17.024zM296.728 170.965c.024 3.273-1.04 5.882-3.195 7.827-2.153 1.945-5.534 2.94-10.142 2.99-2.87-.022-5.458-.576-7.76-1.662-2.3-1.088-4.112-2.587-5.43-4.5l4.897-4.363c1.198 1.37 2.536 2.363 4.013 2.977 1.477.613 3.034.914 4.67.902 3.984.058 5.956-1.172 5.915-3.686.025-.717-.154-1.33-.538-1.84-.384-.512-1.124-.98-2.22-1.41-1.096-.43-2.7-.883-4.807-1.357-2.1-.46-3.946-1.055-5.535-1.787-1.59-.732-2.83-1.757-3.723-3.07-.894-1.314-1.35-3.073-1.364-5.28.026-2.06.578-3.832 1.656-5.314 1.08-1.482 2.53-2.62 4.35-3.42 1.823-.796 3.862-1.198 6.12-1.207 2.628.014 4.95.484 6.965 1.412 2.015.93 3.815 2.236 5.4 3.923l-4.898 4.752c-1.082-1.12-2.252-1.98-3.51-2.582-1.258-.6-2.658-.902-4.2-.908-1.795.032-3.057.354-3.79.963-.733.61-1.086 1.307-1.06 2.092-.052 1.025.414 1.812 1.4 2.364.985.553 2.797 1.123 5.437 1.71 1.834.39 3.612.937 5.334 1.64 1.722.702 3.145 1.743 4.268 3.125 1.124 1.38 1.706 3.283 1.746 5.71M329.362 154.28l-6.305 2.91c-1.148-2.392-3.217-3.62-6.208-3.685-2.562.055-4.532 1.06-5.912 3.02-1.38 1.958-2.076 4.54-2.09 7.748.003 2.057.322 3.892.954 5.507.633 1.615 1.547 2.89 2.745 3.826 1.198.936 2.648 1.414 4.35 1.434 1.5.008 2.767-.336 3.796-1.03 1.028-.695 1.978-1.79 2.85-3.286l5.722 3.395c-1.157 2.42-2.772 4.297-4.844 5.632-2.07 1.334-4.644 2.012-7.717 2.03-4.5-.06-8.084-1.637-10.748-4.734-2.665-3.097-4.03-7.355-4.093-12.773.023-3.47.67-6.513 1.938-9.13 1.27-2.62 3.035-4.664 5.29-6.136 2.257-1.472 4.876-2.22 7.856-2.244 3.185.037 5.788.738 7.81 2.104 2.02 1.362 3.556 3.167 4.606 5.41"/><path d="M363.603 181.247h-6.79v-14.26h-13.92v14.26h-6.79v-33.95h6.79v12.998h13.92v-12.997h6.79z"/><path fill-rule="evenodd" clip-rule="evenodd" d="M393.084 164.27c.006-2.04-.26-3.868-.795-5.483-.536-1.617-1.374-2.896-2.52-3.837-1.144-.942-2.626-1.425-4.448-1.445-1.82.02-3.303.503-4.447 1.445-1.142.94-1.984 2.22-2.52 3.837-.533 1.615-.8 3.443-.793 5.484-.006 2.043.26 3.872.793 5.487.535 1.616 1.377 2.895 2.52 3.837 1.145.942 2.627 1.424 4.447 1.444 1.822-.02 3.305-.502 4.45-1.444 1.144-.942 1.98-2.22 2.517-3.837.534-1.614.8-3.444.794-5.486m6.982 0c-.01 3.47-.598 6.515-1.762 9.132-1.166 2.62-2.846 4.664-5.04 6.136-2.196 1.47-4.843 2.218-7.942 2.242-3.098-.024-5.744-.772-7.938-2.242-2.195-1.472-3.875-3.517-5.04-6.136-1.167-2.617-1.755-5.662-1.765-9.13.01-3.47.597-6.512 1.763-9.13 1.166-2.62 2.846-4.665 5.04-6.135 2.194-1.47 4.84-2.22 7.94-2.244 3.1.024 5.745.773 7.94 2.244 2.195 1.47 3.875 3.515 5.04 6.134 1.165 2.62 1.753 5.664 1.763 9.13M427.71 164.27c.005-2.04-.26-3.868-.794-5.483-.535-1.617-1.375-2.896-2.52-3.837-1.143-.942-2.627-1.425-4.447-1.445-1.82.02-3.306.503-4.448 1.445-1.145.94-1.984 2.22-2.52 3.837-.533 1.615-.8 3.443-.793 5.484-.007 2.043.26 3.872.792 5.487.535 1.616 1.375 2.895 2.52 3.837 1.143.942 2.627 1.424 4.447 1.444 1.82-.02 3.304-.502 4.446-1.444 1.145-.942 1.984-2.22 2.52-3.837.535-1.614.798-3.444.793-5.486m6.983 0c-.01 3.47-.598 6.515-1.764 9.132-1.167 2.62-2.847 4.664-5.042 6.136-2.193 1.47-4.84 2.218-7.94 2.242-3.097-.024-5.743-.772-7.938-2.242-2.195-1.472-3.875-3.517-5.04-6.136-1.167-2.617-1.753-5.662-1.765-9.13.012-3.47.598-6.512 1.764-9.13 1.165-2.62 2.845-4.665 5.04-6.135 2.195-1.47 4.842-2.22 7.94-2.244 3.1.024 5.745.773 7.938 2.244 2.195 1.47 3.875 3.515 5.04 6.134 1.167 2.62 1.755 5.664 1.765 9.13"/><path d="M465.392 181.247h-23.814v-33.95h6.79v27.258h17.024z"/></g><path fill="#FAA61A" d="M99.447 30.993C112.57 13.395 133.55 2 157.192 2c39.76 0 71.99 32.23 71.99 71.99 0 2.113-.092 4.207-.27 6.274-17.925-29.867-59.248-50.77-107.363-50.77-7.556 0-14.945.514-22.103 1.5"/><path fill="#005BAA" d="M4.672 113.532c0-46.414 52.327-84.04 116.877-84.04s116.876 37.626 116.876 84.04c0 46.414-52.326 84.04-116.877 84.04C57 197.57 4.67 159.945 4.67 113.53"/><path fill="#FAA61A" d="M121.1 159.292H93.325v-5.678c-2.615 2.187-5.404 3.952-8.363 5.294-2.96 1.344-6.517 2.035-10.666 2.072-7.69.13-14.02-3.086-18.99-9.65-4.967-6.56-7.536-17.258-7.71-32.09.064-14.377 2.506-25.017 7.327-31.915 4.82-6.9 11.637-10.326 20.448-10.28 4.028.08 7.482.835 10.36 2.26 2.875 1.426 5.408 3.026 7.595 4.796V58.477l27.775-11.05v111.866zm-27.775-24.858V103.59c-1.35-1.166-2.795-2.094-4.336-2.78-1.542-.688-3.37-1.04-5.487-1.055-2.847-.167-5.015 1.05-6.502 3.645-1.486 2.594-2.233 7.57-2.242 14.922.004 7.88.76 13.22 2.26 16.016 1.505 2.798 3.717 4.11 6.64 3.934 3.835-.13 7.056-1.41 9.667-3.838m70.137-75.19c-.077 4.262-1.574 7.59-4.49 9.993-2.914 2.4-6.79 3.62-11.622 3.662-4.62-.042-8.384-1.262-11.297-3.663-2.913-2.402-4.416-5.73-4.507-9.993.09-3.98 1.594-7.183 4.507-9.612 2.913-2.425 6.678-3.67 11.297-3.74 4.833.07 8.708 1.315 11.623 3.74 2.914 2.43 4.41 5.632 4.49 9.612m-2.304 100.048h-27.62v-80.56h27.62v80.56zm58.547-.12c-4.21 1.22-9.043 1.823-14.504 1.81-11.967-.205-23.17-2.406-33.605-6.6l6.446-20.868c4.946 2.172 9.9 3.886 14.864 5.14 4.966 1.254 9.267 1.893 12.91 1.92 2.656 0 4.555-.308 5.697-.923 1.14-.613 1.698-1.533 1.667-2.76.06-1.268-.363-2.265-1.264-2.993-.9-.73-2.63-1.42-5.18-2.072-8.24-2.12-14.81-4.31-19.72-6.574-4.91-2.266-8.437-5.095-10.582-8.485-2.147-3.39-3.196-7.833-3.15-13.327-.002-8.35 2.728-14.822 8.19-19.41 5.463-4.593 13.68-6.92 24.65-6.983 5.923.003 11.26.494 16.015 1.475 2.19.453 4.428 1.005 6.72 1.656 2.27 3.775 4.17 7.694 5.66 11.732l-3.538 12.298c-5.257-2.297-9.97-3.997-14.135-5.102-4.166-1.108-7.996-1.658-11.49-1.65-2.632-.008-4.427.273-5.39.842-.962.57-1.416 1.466-1.363 2.685-.107 1.182.34 2.16 1.344 2.938 1.005.775 3.215 1.64 6.636 2.59 7.544 1.973 13.667 4.06 18.37 6.26 4.7 2.204 8.142 4.95 10.32 8.243.84 1.27 1.514 2.68 2.027 4.238-2.4 12.374-8.548 23.886-17.593 33.923"/></svg>